<?xml version="1.0" standalone="no"?>
<!DOCTYPE svg PUBLIC "-//W3C//DTD SVG 1.1//EN" "http://www.w3.org/Graphics/SVG/1.1/DTD/svg11.dtd" >
<!--
2013-9-30: Created.
-->
<svg>
<metadata>
Created by iconfont
</metadata>
<defs>

<font id="iconfont" horiz-adv-x="1024" >
  <font-face
    font-family="iconfont"
    font-weight="500"
    font-stretch="normal"
    units-per-em="1024"
    ascent="896"
    descent="-128"
  />
    <missing-glyph />
    
    <glyph glyph-name="yonghu" unicode="&#58905;" d="M511.95 896C229.678 896 0 666.322 0 384.05s229.678-511.95 511.95-511.95 511.95 229.678 511.95 511.95S794.222 896 511.95 896z m0-73.093c242.276 0 438.857-196.58 438.857-438.857 0-97.89-32.397-187.782-86.491-260.775-53.195 83.592-134.687 147.286-231.378 176.183 56.595 38.796 93.891 103.79 93.891 177.383 0 118.488-96.29 214.879-214.879 214.879-118.488 0-214.879-96.39-214.879-214.88 0-74.292 37.996-139.785 95.49-178.382-96.69-29.797-177.982-94.19-230.477-178.482C106.59 193.469 73.193 284.76 73.193 383.95c-0.1 242.376 196.48 438.957 438.757 438.957z"  horiz-adv-x="1024" />

    
    <glyph glyph-name="yonghu1" unicode="&#58887;" d="M511.33-48.33c-58.71 0-115.68 11.51-169.33 34.2-51.8 21.91-98.32 53.27-138.26 93.21-39.94 39.94-71.3 86.46-93.21 138.26-22.69 53.65-34.2 110.62-34.2 169.33 0 58.71 11.51 115.68 34.2 169.33 21.91 51.8 53.27 98.32 93.21 138.26 39.94 39.94 86.46 71.3 138.26 93.21 53.65 22.69 110.62 34.2 169.33 34.2 58.71 0 115.68-11.51 169.33-34.2 51.8-21.91 98.32-53.27 138.26-93.21 39.94-39.94 71.3-86.46 93.21-138.26 22.69-53.65 34.2-110.62 34.2-169.33 0-58.71-11.51-115.68-34.2-169.33-21.91-51.8-53.27-98.32-93.21-138.26s-86.46-71.3-138.26-93.21c-53.65-22.69-110.62-34.2-169.33-34.2z m0 800c-201.26 0-365-163.74-365-365s163.74-365 365-365 365 163.74 365 365c0 201.27-163.74 365-365 365zM511.33-48.33c-145.63 0-280.94 72.39-361.94 193.64l-12.75 19.08 12.42 19.3c38.27 59.47 91.11 109.09 152.8 143.51 63.69 35.53 136.12 54.32 209.47 54.32s145.78-18.78 209.47-54.32c61.69-34.42 114.53-84.04 152.8-143.51l12.42-19.3-12.75-19.08c-81-121.25-216.3-193.64-361.94-193.64zM221.24 165.12c68.96-90.24 175.73-143.45 290.09-143.45 114.36 0 221.14 53.21 290.09 143.45-67.95 92.1-174.74 146.41-290.09 146.41-115.35 0-222.14-54.31-290.09-146.41zM511.33 401.07c-90.98 0-165 74.02-165 165s74.02 165 165 165 165-74.02 165-165-74.02-165-165-165z m0 260c-52.38 0-95-42.62-95-95s42.62-95 95-95 95 42.62 95 95-42.61 95-95 95z"  horiz-adv-x="1024" />

    
    <glyph glyph-name="wuyeguanli" unicode="&#58888;" d="M515.541 888.9171c-280.359 0-508.459-228.12-508.459-508.459s228.12-508.459 508.459-508.459 508.459 228.12 508.459 508.459S795.901 888.9171 515.541 888.9171ZM515.541-85.86400000000003c-257.133 0-466.301 209.19-466.301 466.323 0 257.133 209.169 466.323 466.301 466.323s466.301-209.19 466.301-466.323S772.674-85.86400000000003 515.541-85.86400000000003ZM614.574 371.823L614.574 371.823c47.7511 31.9688 79.2306 86.3986 79.2306 148.188 0 98.4374-79.8049 178.242-178.242 178.242-98.4374 0-178.242-79.8049-178.242-178.242 0-61.8105 31.4796-116.219 79.2519-148.188-100.267-39.5196-171.245-137.17-171.245-251.454 0-0.23397 0-0.446669 0.02127-0.659369 0-0.04254-0.02127-0.10635-0.02127-0.14889 0-15.6122 12.6556-28.2465 28.2678-28.2465 15.5909 0 21.8868 12.6344 21.8868 28.2465 0 0.340319-0.08508 0.659369-0.10635 1.02096 0.10635 118.006 102.16 219.995 220.208 219.995 118.112 0 220.208-102.096 220.208-220.208 0-0.14889-1.46763-29.0548 21.9719-29.0548 15.5058 0 28.0764 12.5705 28.0764 28.0551 0 0.06381-0.02127 0.12762-0.02127 0.2127 0 0.25524 0.02127 0.510479 0.02127 0.786989C785.798 234.65300000000002 714.799 332.303 614.574 371.823ZM515.541 385.266c-74.4023 0-134.724 60.3216-134.724 134.724 0 74.4236 60.3216 134.724 134.724 134.724 74.4236 0 134.724-60.3216 134.724-134.724S589.944 385.266 515.541 385.266Z"  horiz-adv-x="1024" />

    
    <glyph glyph-name="sousuo" unicode="&#58891;" d="M446.112323 718.454949c137.567677-0.219798 252.612525-104.59798 266.162424-241.493333 13.562828-136.895354-78.778182-261.818182-213.617777-289.008485-134.852525-27.203232-268.386263 52.156768-308.945455 183.608889s25.018182 272.252121 151.738182 325.779394A267.235556 267.235556 0 0 0 446.112323 718.454949m0 62.060607c-182.794343 0-330.989899-148.195556-330.989899-330.989899s148.195556-330.989899 330.989899-330.989899 330.989899 148.195556 330.989899 330.989899-148.195556 330.989899-330.989899 330.989899z m431.321212-793.341415a30.849293 30.849293 0 0 0-21.94101 9.102223l-157.220202 157.220202c-11.752727 12.179394-11.584646 31.534545 0.37495 43.50707 11.972525 11.972525 31.327677 12.140606 43.494141 0.37495l157.220202-157.220202a31.036768 31.036768 0 0 0 6.723232-33.810101 31.004444 31.004444 0 0 0-28.651313-19.174142z m0 0"  horiz-adv-x="1024" />

    
    <glyph glyph-name="laba" unicode="&#59004;" d="M711.619765-115.952941c-17.408 0-34.936471 4.879059-50.718118 14.757647l-267.083294 166.00847-3.614118 2.469648a70.415059 70.415059 0 0 1-33.430588 8.673882H171.068235c-74.932706 0-135.951059 70.595765-135.951059 157.214118V546.755765c0 86.738824 61.018353 157.214118 135.951059 157.214117h185.705412c13.010824 0 26.081882 3.855059 37.888 11.264L661.684706 881.242353a94.569412 94.569412 0 0 0 99.388235 1.204706c35.117176-20.720941 56.801882-61.620706 56.801883-106.616471L817.392941 593.618824l-0.421647-589.402353c0-45.056-21.805176-85.895529-56.741647-106.676706-15.36-9.035294-31.924706-13.552941-48.670118-13.552941zM1105.317647 703.247059c80.293647-83.666824 124.446118-194.800941 124.446118-313.22353 0-118.422588-44.152471-229.496471-124.446118-313.223529a45.417412 45.417412 0 0 0-66.499765 0 50.597647 50.597647 0 0 0 0 69.270588 350.147765 350.147765 0 0 1 96.858353 243.952941c0 92.16-34.334118 178.838588-96.858353 243.952942a50.597647 50.597647 0 0 0 0 69.270588 45.778824 45.778824 0 0 0 66.499765 0z m-156.310588-110.832941c93.184-111.616 93.184-293.165176 0-404.720942a37.767529 37.767529 0 0 0-29.214118-14.516705 38.128941 38.128941 0 0 0-29.334588 14.516705 56.801882 56.801882 0 0 0 0 70.113883c60.897882 72.884706 60.897882 191.548235 0 264.432941a56.801882 56.801882 0 0 0 0 70.113882 36.803765 36.803765 0 0 0 58.548706 0z"  horiz-adv-x="1264" />

    
    <glyph glyph-name="junshi" unicode="&#58886;" d="M512 797.438c115.763 0 219.122-45.479 293.54-124.032h107.494C826.213 797.438 677.375 880.125 512 880.125S197.787 797.438 110.966 673.406h107.493C292.88 751.96 396.237 797.438 512 797.438zM962.647 450.15l-4.134-12.403-33.075-62.016c-4.135-132.3-66.15-248.062-165.375-318.347v82.688l82.687 165.375h-82.688V346.79h103.36l62.016 124.03H760.063v37.21h186.046l62.016 124.031H760.062S673.241 694.078 512 694.078s-248.063-62.016-248.063-62.016H15.875l62.016-124.03h186.046v-41.345H98.563l62.016-124.03h103.36v-41.345H181.25l82.688-165.374v-82.688c-99.225 74.419-161.241 190.181-165.376 318.347l-37.209 74.419-16.537 33.075-12.403 28.94C20.009 466.687 15.875 425.344 15.875 384c0-272.869 223.256-496.125 496.125-496.125S1008.125 111.131 1008.125 384c0 41.344-4.134 82.687-16.538 124.031l-28.94-57.881z m-500.26 41.344L512 590.719l49.612-99.225 107.494-16.538-78.553-78.553 16.538-107.494L512 342.656l-99.225-49.612 16.538 107.493-74.42 74.42 107.495 16.537z m214.988-425.84L512-29.439l-165.375 95.091V156.61L512 61.52l165.375 95.09v-90.956z"  horiz-adv-x="1024" />

    
    <glyph glyph-name="lishi" unicode="&#58975;" d="M169.115676 177.152978c-112.101147 0-150.903895-43.11496-150.903895-107.788935 0-64.672952 38.802748-107.794052 150.903895-107.794052 112.106264 0 150.909012 43.1211 150.909012 107.794052C320.025711 134.038018 281.22194 177.152978 169.115676 177.152978L169.115676 177.152978zM169.115676 177.152978M988.323453 737.663832l-86.230943 0c-12.93766 0-21.556968-8.624425-21.556968-21.557992l0-107.794052-43.115983 0L837.419558 759.2208c0 12.932544-8.624425 21.557992-21.562085 21.557992l-86.230943 0c-12.932544 0-21.556968-8.626471-21.556968-21.557992l0-107.788935-43.115983 0L664.953577 759.2208c0 12.932544-8.624425 21.557992-21.556968 21.557992l-86.230943 0c-12.93766 0-21.556968-8.626471-21.556968-21.557992l0-107.788935-43.1211 0 0 64.672952c0 12.933567-8.620331 21.557992-21.557992 21.557992l-86.22992 0c-12.932544 0-21.557992-8.624425-21.557992-21.557992l0-107.794052-43.113937 0 0 86.23606c0 64.672952-38.802748 107.788935-150.909012 107.788935-112.101147 0-150.903895-43.115983-150.903895-107.788935l0-517.395894 0 0c34.495652 30.18344 81.918731 43.115983 150.903895 43.115983 68.985164 0 116.41336-12.932544 150.909012-43.115983l0 0 0 43.115983 43.113937 0 0-107.788935c0-12.93766 8.626471-21.556968 21.557992-21.556968l86.22992 0c12.938684 0 21.557992 8.620331 21.557992 21.556968L492.487597 263.383922l43.1211 0 0-107.788935c0-12.932544 8.620331-21.556968 21.556968-21.556968l86.230943 0c12.932544 0 21.556968 8.624425 21.556968 21.556968L664.953577 263.383922l43.115983 0 0-107.788935c0-12.932544 8.625448-21.556968 21.556968-21.556968l86.230943 0c12.93766 0 21.562085 8.624425 21.562085 21.556968l0 64.672952 43.115983 0 0-107.788935c0-12.93766 8.620331-21.556968 21.556968-21.556968l86.230943 0c12.932544 0 21.556968 8.620331 21.556968 21.556968L1009.880421 716.10584C1009.881444 729.039407 1001.255996 737.663832 988.323453 737.663832L988.323453 737.663832zM363.139647 263.383922l-43.113937 0 0 301.81393 43.113937 0L363.139647 263.383922 363.139647 263.383922zM535.607674 306.499905l-43.1211 0L492.486574 608.311789l43.1211 0L535.607674 306.499905 535.607674 306.499905zM708.068538 306.499905l-43.115983 0L664.952554 608.311789l43.115983 0L708.068538 306.499905 708.068538 306.499905zM880.535541 263.383922l-43.115983 0 0 301.81393 43.115983 0L880.535541 263.383922 880.535541 263.383922zM880.535541 263.383922"  horiz-adv-x="1024" />

    
    <glyph glyph-name="xuanyilingyi" unicode="&#58882;" d="M996.351 384c0 268.595-215.756 484.351-484.351 484.351S27.649 652.595 27.649 384c0-52.838 17.613-105.677 44.032-154.112v4.403c0 30.823 13.21 57.242 39.629 70.452 79.257 44.031 206.95-101.274 233.369-215.757 8.806-48.435 13.21-96.87 8.806-140.902C415.13-82.738 472.371-100.35 512-100.35c39.629 0 96.87 22.016 158.515 52.838-4.403 39.629 0 92.467 8.806 140.902 26.42 114.483 154.112 259.789 233.37 215.757 26.419-17.613 39.628-39.629 39.628-70.451 26.42 44.032 44.032 96.87 44.032 145.305z m-598.834 26.42c-44.032-66.049-118.886-96.871-167.321-61.646s-57.242 114.483-17.613 180.531c44.032 66.048 118.886 96.87 167.321 61.645 52.839-30.822 57.242-114.483 17.613-180.53z m202.547-268.596c0-48.435-39.629-88.063-88.064-88.063-48.435 0-88.064 39.628-88.064 88.063v110.08c0 48.435 39.629 88.064 88.064 88.064 48.435 0 88.064-39.629 88.064-88.064v-110.08z m198.143 206.95c-52.838-30.822-127.692-4.403-167.32 61.645-44.033 66.048-35.226 145.305 17.612 180.531 52.838 30.822 127.692 4.403 167.321-61.645 39.629-70.45 30.823-149.708-17.613-180.53zM137.729 269.517c-22.016-13.21-22.016-26.42-4.403-110.08 8.806-44.032 17.612-74.854 17.612-110.08v-70.45c-4.403-44.033-4.403-39.63 0-44.033 0-4.403 4.403-4.403 8.807-8.806 4.403-4.403 35.225-13.21 74.854-17.613 35.225 0 70.451 0 79.257 4.404 8.807 4.403 17.613 96.87 0 176.127-30.822 83.66-136.499 202.547-176.127 180.531z m752.945 0c-44.031 22.016-149.708-96.87-167.32-184.934-17.614-74.854-8.807-167.321 0-176.128 4.402-4.403 44.031-4.403 79.257-4.403 39.628 0 70.45 8.807 74.854 17.613 4.403 4.403 4.403 8.806 8.806 8.806V44.954c0 35.226 4.403 66.048 17.613 110.08 13.21 88.064 13.21 101.273-13.21 114.483z"  horiz-adv-x="1024" />

    
    <glyph glyph-name="xianshi" unicode="&#58883;" d="M572.44444467 594.6666666599999l45.333333-200.888889q-5.333333-17.777778-18.666667-53.777778t-18.666666-52.888889q-25.777778-65.777778-64.88888899-144-23.111111 45.333333-33.77777802 72-20.444444 40.888889-31.11111099 75.555556-15.111111 38.222222-18.666667 53.333333-3.555556 9.777778-9.333333 26.666667t-9.333333 26.666667l45.333333 200.888889L572.44444467 598.2222226599999l0-3.555556zM746.66666667 775.99999966Q847.99999968 718.2222226599999 909.33333367 613.77777765T970.66666667 385.77777766Q970.66666667 228.44444466000004 875.55555567 107.55555565999998t-242.666667-161.777778l-18.666666 23.111111q-25.777778 30.222222-68.444445 109.333334 49.777778 96 92.88888899 206.222222t75.55555601 245.777778T746.66666667 775.99999966z m-174.222222-144l-113.777778 0-45.333333 118.222223q-6.222222 13.333333-0.888889 30.666666T431.99999967 807.11111066l41.77777799 33.777778 83.55555601 0 41.777777-33.777778q10.666667-8.888889 16-25.777777t2.666667-31.111111z m-288 144q-0.88888899-93.333333 21.333333-204.444444t56-208.444445 74.222222-188.444444 74.666667-152T568.88888867-69.33333333999997l-53.333333 0q-122.666667 0-227.555556 61.333333t-166.222222 166.222223-61.333333 227.555555q0 123.555556 61.333333 228T284.44444467 775.99999966z"  horiz-adv-x="1024" />

    
    <glyph glyph-name="wuxia" unicode="&#58884;" d="M1024 597.3330000000001L1024 640 597.333 853.3333c0 21.3333-21.3333 42.6667-42.6667 42.6667l-85.3333 0c-25.6 0-42.6667-17.0667-42.6667-42.6667L0 640l0-42.6667c0 0 25.6-25.6 85.3333-51.2L85.3333 469.333l85.3333-42.6667L170.667 512c34.1333-8.53333 72.5333-21.3333 119.467-25.6 17.0667-55.4667 51.2-106.667 85.3333-140.8-157.867-46.9333-273.067-174.933-273.067-328.533 0-192 819.2-192 819.2 0 0 110.933-59.7333 209.067-153.6 268.8 29.8667 17.0667 64 38.4 93.8667 51.2 72.5333 38.4 162.133 42.6667 162.133 42.6667l-59.7333 38.4 17.0667 38.4c0 0-106.667-8.53333-200.533-51.2-51.2-21.3333-98.1333-46.9333-132.267-64 38.4 38.4 68.2667 89.6 85.3333 140.8C947.2 520.533 1024 597.3330000000001 1024 597.3330000000001ZM512 469.333c42.6667 0 85.3333 0 119.467 4.26667-8.53333-21.3333-17.0667-34.1333-17.0667-34.1333S554.667 409.6 512 409.6s-102.4 25.6-102.4 25.6-8.53333 17.0667-17.0667 38.4C426.667 469.333 469.333 469.333 512 469.333ZM187.733 17.067000000000007c0 42.6667 12.8 81.0667 34.1333 119.467 59.7333-72.5333 140.8-145.067 290.133-174.933C465.067-46.93299999999999 260.267-25.600000000000022 187.733 17.067000000000007ZM814.933 106.66700000000003c12.8-29.8667 21.3333-59.7333 21.3333-93.8667 0 4.26667-68.2667-12.8-183.467 0s-183.467 55.4667-183.467 55.4667S614.4 64 814.933 106.66700000000003ZM686.933 234.66700000000003c25.6-12.8 51.2-34.1333 72.5333-51.2C618.667 149.33299999999997 371.2 174.933 298.667 213.33299999999997c25.6 17.0667 59.7333 34.1333 93.8667 46.9333C537.6 200.53300000000001 652.8 221.86699999999996 686.933 234.66700000000003Z"  horiz-adv-x="1024" />

    
    <glyph glyph-name="pc-qingxiaoshuo" unicode="&#59147;" d="M837.814309 796.251343v-623.688018c0-60.291116-48.946699-109.237816-109.237815-109.237816H161.610562c-28.169845 0-50.986145 4.461288-50.986145-23.644825v-14.148655a50.986145 50.986145 0 0 1 50.986145-50.986145H836.985785c40.151589 0 72.846455 3.059169 72.846454 43.274491V836.785329a55.065037 55.065037 0 1 0 110.066341 0v-872.11801c0-47.162184-50.348818-92.539853-90.56414-92.539854H73.022135A72.846455 72.846455 0 0 0 0.17568-55.02608V819.00391C0.17568 859.219232 32.806813 891.850365 73.022135 891.850365h669.193153a95.599022 95.599022 0 0 0 95.599021-95.599022zM414.438108 335.400325l91.583863-26.767726a31.866341 31.866341 0 0 1 40.788916 29.635697l2.867971 95.407824 53.72665 78.837326A31.866341 31.866341 0 0 1 587.791001 560.440423l-89.799348 32.185004-58.379136 75.459494a31.866341 31.866341 0 0 1-50.348818 0l-58.379136-75.459494-89.863081-32.185004a31.866341 31.866341 0 0 1-15.550774-47.926977l53.72665-78.837326 2.867971-95.407824a31.866341 31.866341 0 0 1 40.788916-29.571964L414.438108 335.400325z"  horiz-adv-x="1024" />

    
    <glyph glyph-name="1" unicode="&#58885;" d="M490.678-2.40300000000002c21 79.798 275.094 138.597 350.692 302.393-18.9-10.5-39.899-18.9-60.898-25.2-92.398-25.199-167.997-16.799-226.795 2.1-73.499-65.098-264.594-98.697-256.194-260.393 8.4-197.396 388.49-113.398 388.49-113.398S463.38-99 490.679-2.40300000000002zM748.972 127.79399999999998c-130.197-69.298-226.794-113.397-220.495-144.896 8.4-42 138.597-62.999 195.296-44.1 56.699 21 144.897 111.298 180.596 94.498 35.699-16.8 31.499-77.698-10.5-149.096 56.699 44.099 113.397 155.396 60.899 226.795-52.5 69.298-151.197 44.099-205.796 16.8zM192.485 287.39c65.099 58.8 37.8 42 69.299 159.597 25.199 100.798 107.097 88.198 172.196 195.295s23.099 247.795 2.1 245.695c-29.4-4.2 25.199-54.599-29.4-178.496 6.3 48.299-4.2 86.098-29.4 79.798 25.2-69.298-44.098-163.796-140.696-214.195-111.297-56.699-52.499-98.698-90.298-151.197S85.388 350.39 70.688 339.89c-44.099 10.5-96.598-65.098-33.6-100.797 6.3 27.3 29.4 31.499 33.6-6.3 21-25.2 58.799-44.1 94.498-12.6-52.499 4.2-10.5 31.5 27.3 67.199z m14.7 188.996c10.5 16.8 60.898 39.9 67.198 33.6 0 0-16.8-21-23.1-33.6-12.599-27.3-18.899-50.399-41.998-39.899-12.6 6.3-14.7 23.1-2.1 39.9zM400.38 320.99c-73.498-25.2-117.597-2.1-132.297 41.999 0-44.1-27.299-151.197-113.397-178.496C255.484 125.69399999999996 320.582 291.59000000000003 400.38 320.99zM123.187 562.4839999999999c18.9 65.099 119.697 88.198 102.897 178.496-16.8-96.598-88.198-83.998-121.797-163.796-31.5-77.698 10.5-151.197-31.5-220.495 63 90.298 21 98.698 50.4 205.795zM307.982 476.386c-41.999-48.299-39.899-155.396 65.099-136.497s136.497 188.996 79.798 296.094c-23.1-81.899-102.897-111.298-144.897-159.597zM604.076 640.182c-33.6-18.9-60.899-37.799-90.298-48.298 6.3-25.2 10.5-52.5 10.5-79.799 0-27.299-4.2-54.598-10.5-77.698-8.4-27.3-18.9-52.499-33.6-73.498 237.295-132.297 428.39 23.1 485.09 113.397-104.998-33.599-172.197-58.798-258.295-60.898 130.197 18.9 264.594 92.398 312.893 188.995-58.799 31.5-109.197 50.4-153.296 65.099 29.399 6.3 56.698 12.6 81.898 25.2-266.694 170.095-409.49 4.2-470.39-29.4 10.5-14.7 18.9-29.4 25.2-46.199 33.6 10.5 67.198 18.9 100.798 23.1z"  horiz-adv-x="1028" />

    
    <glyph glyph-name="chengjiu" unicode="&#58919;" d="M934.679128 825.819315h-66.480249V837.175826c0 30.7519-24.882243 55.634143-55.634144 55.634143H209.266044c-30.6881 0-55.634143-24.882243-55.634144-55.634143V825.819315H82.94081C41.598006 825.819315 7.975078 792.196386 7.975078 750.853583v-150.697072C7.975078 527.615202 67.054455 468.535826 139.595763 468.535826h15.822555c16.141558-165.754019 145.529221-298.204112 309.815825-319.194518v-168.880249H250.353645c-53.401121 0-96.721745-43.320623-96.721745-96.721744v-11.739315h714.566979v11.739315c0 53.401121-43.256822 96.721745-96.657944 96.721744H556.660436v168.880249c164.286604 20.990405 293.674268 153.440498 309.815826 319.194518h11.547912C950.565483 468.535826 1009.64486 527.615202 1009.64486 600.156511V750.853583c0 41.342804-33.622928 74.965732-74.965732 74.965732zM153.6319 532.336449h-14.036137C102.208598 532.336449 71.775701 562.769346 71.775701 600.156511V750.853583c0 6.12486 5.040249 11.165109 11.165109 11.165109h70.69109v-229.682243z m521.314891 30.815701L515.828037 404.033396c-3.891838-3.891838-10.144299-3.891838-14.036137 0L342.673146 563.15215c-2.998629 2.998629-3.764237 7.592274-1.914018 11.420311l42.363613 86.896449c1.658816 3.381433 5.16785 5.550654 8.932088 5.550654h233.51028c3.764237 0 7.273271-2.169221 8.932087-5.550654l42.363614-86.896449c1.850218-3.828037 1.084611-8.421682-1.914019-11.420311z m270.897446 37.004361c0-37.387165-30.432897-67.820062-67.820063-67.820062h-9.825295V762.018692h66.480249c6.12486 0 11.165109-5.040249 11.165109-11.165109v-150.697072z"  horiz-adv-x="1024" />

    
    <glyph glyph-name="nvshengwang" unicode="&#58898;" d="M512 896C217.6 896 85.333333 708.266667 85.333333 426.666667l0-554.666667 853.333333 0L938.666667 426.666667C938.666667 708.266667 806.4 896 512 896zM512-42.666667c-157.866667 0-341.333333 226.133333-341.333333 460.8 0 17.066667 0 34.133333 4.266667 51.2C375.466667 597.333333 384 704 384 704s51.2-204.8 465.066667-234.666667c0-17.066667 4.266667-34.133333 4.266667-51.2C853.333333 183.466667 669.866667-42.666667 512-42.666667zM362.666667 362.666667m-42.666667 0a1 1 0 1 0 85.333333 0 1 1 0 1 0-85.333333 0ZM661.333333 362.666667m-42.666667 0a1 1 0 1 0 85.333333 0 1 1 0 1 0-85.333333 0ZM601.6 145.066667c-4.266667-4.266667-8.533333-12.8-21.333333-17.066667-17.066667-12.8-42.666667-21.333333-68.266667-21.333333s-46.933333 8.533333-68.266667 21.333333c-12.8 8.533333-17.066667 12.8-21.333333 17.066667-8.533333 8.533333-21.333333 12.8-29.866667 4.266667S379.733333 128 388.266667 119.466667c4.266667-8.533333 17.066667-17.066667 34.133333-29.866667 25.6-17.066667 55.466667-25.6 89.6-25.6s64 8.533333 89.6 25.6c17.066667 8.533333 25.6 21.333333 34.133333 29.866667 8.533333 8.533333 4.266667 21.333333-4.266667 29.866667S610.133333 153.6 601.6 145.066667z"  horiz-adv-x="1024" />

    
    <glyph glyph-name="qihuan" unicode="&#58900;" d="M989.866667 597.333333c-170.666667 341.333333-473.6 268.8-473.6 268.8l-42.666667 25.6c0 0-4.266667-25.6-8.533333-38.4 72.533333-34.133333 115.2-217.6 46.933333-277.333333-25.6 12.8-46.933333 29.866667-46.933333 64l8.533333-4.266667 4.266667 12.8-8.533333 12.8c0 4.266667 0 4.266667 0 8.533333l12.8-4.266667 4.266667 17.066667-17.066667 17.066667c0 4.266667 0 8.533333 0 12.8L482.133333 699.733333 482.133333 716.8l-29.866667 21.333333c0 4.266667-4.266667 8.533333-4.266667 12.8l29.866667-4.266667-4.266667 12.8L413.866667 785.066667l46.933333 4.266667-8.533333 12.8c0 0-42.666667 12.8-89.6 12.8 8.533333 8.533333 25.6 25.6 51.2 34.133333 0 17.066667 4.266667 34.133333 4.266667 34.133333S362.666667 870.4 315.733333 849.066667 204.8 789.333333 213.333333 772.266667c-4.266667-12.8-55.466667-29.866667-64-42.666667C140.8 716.8 166.4 704 170.666667 669.866667 196.266667 682.666667 251.733333 725.333333 268.8 691.2c25.6-4.266667 102.4 51.2 102.4-17.066667 0-59.733333-21.333333-89.6-21.333333-162.133333-12.8-29.866667-12.8-64-25.6-64C298.666667 469.333333 277.333333 524.8 277.333333 550.4c0 25.6 21.333333 55.466667 21.333333 55.466667L290.133333 614.4l4.266667 21.333333L281.6 648.533333l-21.333333 0L273.066667 640l0-12.8L264.533333 622.933333l0 12.8L260.266667 635.733333 247.466667 652.8 221.866667 657.066667 217.6 648.533333l8.533333 0 8.533333-12.8L217.6 635.733333 213.333333 627.2 209.066667 635.733333l-12.8 0L170.666667 614.4l17.066667 4.266667 8.533333-4.266667c0-12.8 8.533333-12.8 25.6-42.666667C238.933333 537.6 226.133333 512 226.133333 512L209.066667 494.933333l4.266667-17.066667L209.066667 473.6l-21.333333 0 21.333333-17.066667L230.4 469.333333l4.266667-4.266667 17.066667 25.6c0 0 0 4.266667 8.533333 0 12.8-81.066667 46.933333-110.933333 59.733333-123.733333-4.266667-17.066667-25.6-8.533333-25.6-8.533333s12.8-25.6 46.933333-4.266667c12.8 0 21.333333 4.266667 25.6 12.8 0 4.266667 8.533333 12.8 17.066667 21.333333 34.133333-55.466667 85.333333-93.866667 102.4-102.4 4.266667-4.266667 12.8-12.8 17.066667-17.066667 0-21.333333 0-85.333333 29.866667-102.4 34.133333-21.333333-149.333333-76.8-192 21.333333L311.466667 204.8l-25.6 0-8.533333-12.8 17.066667-4.266667-34.133333-12.8-8.533333-25.6L268.8 162.133333l8.533333-8.533333L251.733333 128l4.266667-25.6L268.8 115.2l8.533333 0 4.266667-8.533333 8.533333 0 12.8 8.533333 25.6 0L354.133333 89.6l0-29.866667 4.266667-8.533333 0-8.533333-17.066667-17.066667 21.333333-4.266667 17.066667 8.533333 4.266667 17.066667 4.266667 8.533333 0 29.866667 0 12.8c0 0 17.066667-21.333333 85.333333-17.066667 68.266667 4.266667 93.866667 21.333333 93.866667 21.333333s12.8-17.066667-4.266667-34.133333c25.6-8.533333 25.6 38.4 25.6 38.4s12.8 25.6 0 38.4c-4.266667 12.8 4.266667 34.133333 12.8 51.2 21.333333-8.533333 38.4-12.8 55.466667-34.133333 46.933333-59.733333-34.133333-209.066667-145.066667-209.066667-426.666667 0-452.266667 384-452.266667 384l64-29.866667c0 0-12.8 132.266667-106.666667 192 0-4.266667-17.066667-59.733333-17.066667-119.466667C12.8 115.2 226.133333-123.733333 524.8-128c221.866667 0 302.933333 149.333333 302.933333 290.133333 4.266667 81.066667-25.6 153.6-59.733333 196.266667-34.133333 42.666667 25.6 93.866667 34.133333 4.266667 102.4 0 98.133333-307.2-72.533333-443.733333C1062.4 68.266667 1079.466667 418.133333 989.866667 597.333333zM238.933333 759.466667C226.133333 772.266667 273.066667 780.8 273.066667 780.8S247.466667 742.4 238.933333 759.466667z"  horiz-adv-x="1037" />

    
    <glyph glyph-name="dushi" unicode="&#58881;" d="M1024 896H801.391304v-44.521739h-44.521739v-489.739131h-89.043478v133.565218h-44.521739v44.521739h-133.565218v-44.521739h-44.521739v-267.130435h-89.043478V584.347826h-89.043478v89.043478L0 762.434783v-890.434783h1068.521739V851.478261h-44.521739V896zM89.043478 584.347826h89.043479v-66.782609H89.043478v66.782609z m111.304348-178.086956h66.782609v-66.782609H200.347826v66.782609z m311.652174-178.086957h89.043478v-66.782609h-89.043478v66.782609zM845.913043 762.434783h89.043479v-66.782609h-89.043479V762.434783z m66.782609-356.173913h66.782609v-66.782609h-66.782609v66.782609z m-400.695652 0h89.043478v-66.782609h-89.043478v66.782609z m333.913043-356.173913h133.565218v-66.782609h-133.565218v66.782609zM89.043478 50.086957h178.086957v-66.782609H89.043478v66.782609z"  horiz-adv-x="1068" />

    
    <glyph glyph-name="kehuan" unicode="&#58936;" d="M1011.712 665.6c-34.304 59.904-132.096 72.704-256 47.104-72.704 59.904-162.304 98.304-264.704 98.304-221.696 0-405.504-183.296-405.504-405.504 0-25.6 4.096-55.296 8.704-80.896-80.896-93.696-115.2-179.2-80.896-234.496 34.304-64 144.896-72.704 281.6-38.4 59.904-29.696 123.904-51.2 196.096-51.2 217.6 0 396.8 175.104 405.504 392.704 102.4 105.984 153.6 208.384 115.2 272.384zM725.504 554.496C751.104 554.496 768 537.6 768 512s-16.896-42.496-42.496-42.496S683.008 486.4 683.008 512s16.896 42.496 42.496 42.496zM491.008 512c34.304 0 64-29.696 64-64s-29.696-64-64-64-64 29.696-64 64 29.696 64 64 64z m-85.504 170.496c12.8 0 21.504-8.704 21.504-21.504s-8.704-21.504-21.504-21.504S384 648.192 384 660.992s8.704 21.504 21.504 21.504z m-192-212.992c25.6 0 42.496-16.896 42.496-42.496s-16.896-42.496-42.496-42.496-42.496 16.896-42.496 42.496 16.896 42.496 42.496 42.496z m491.008-299.008c-21.504 0-42.496 12.8-55.296 29.696 38.4 21.504 72.704 47.104 106.496 72.704 8.704-8.704 12.8-25.6 12.8-38.4 0-33.792-30.208-64-64-64z m-123.904 94.208C320.512 115.2 115.712 94.208 85.504 149.504c-12.8 21.504 0 59.904 29.696 111.104 12.8-34.304 29.696-64 51.2-89.6 42.496 4.096 93.696 16.896 153.6 38.4-12.8 8.704-21.504 25.6-21.504 47.104 0 47.104 38.4 85.504 85.504 85.504 42.496 0 76.8-29.696 85.504-72.704 21.504 12.8 42.496 25.6 68.096 38.4 162.304 93.696 272.896 196.096 320 272.896-12.8 29.696-29.696 59.904-51.2 85.504 64 4.096 111.104-4.096 123.904-25.6 30.208-60.416-89.6-226.816-349.696-375.808z"  horiz-adv-x="1025" />

    
    <glyph glyph-name="youxi" unicode="&#58957;" d="M490.8032 896h38.9632c83.0464-2.4576 167.0144-4.5056 248.0128-24.8832 40.704-10.24 80.5888-25.7024 115.5584-49.2032 46.592-32.5632 78.4896-82.7904 95.6928-136.3968 26.2656-76.6976 28.3136-158.2592 34.9696-238.1312v-117.7088c-6.2976-97.4336-9.7792-198.4-51.456-288.6144-30.208-64.7168-90.4192-111.8208-157.4912-133.9392-90.7776-29.44-187.1872-32.8192-281.7536-35.1232h-46.2336c-102.2976 3.3792-207.9232 5.4272-304.1792 44.544-63.3344 26.0096-114.2272 78.4896-139.6224 141.9264C6.912 147.6096 3.584 245.6064 0 340.5312V432.7936c3.072 90.9312 8.7552 183.3984 39.8336 269.7728 12.032 32.7168 32 62.1056 55.0912 87.9616 39.424 42.9568 94.9248 66.56 150.3232 80.9984C325.5296 891.3408 408.6272 893.4912 490.8032 896M335.4112 625.664c-36.352-8.6528-65.2288-36.3008-82.688-68.4032-27.904-50.4832-39.7312-107.6736-48.7424-164.096-7.424-54.1696-16.1792-108.7488-12.8512-163.6352 1.1264-20.736 4.9664-41.6768 14.4384-60.3136 8.6016-16.7936 26.112-29.7984 45.5168-28.8256 33.1264-2.3552 64.4096 15.8208 83.5072 42.0352 23.296 29.5424 44.9536 67.4304 84.6336 76.0832 64.256 13.9776 132.0448 14.1312 195.84-2.2528 56.1664-18.3808 68.7104-90.7264 124.1088-110.4384 22.3744-6.912 51.968-10.9056 69.9392 7.7312 15.104 16.5376 20.2752 39.5264 22.8864 61.1328 6.3488 70.144-5.376 140.0832-17.0496 208.9984-11.4176 55.0912-25.6512 112.128-60.3648 157.696-27.0848 36.1472-74.752 54.784-119.1424 45.7728-43.2128-9.7792-70.3488-51.1488-112.9472-61.9008-39.9872-6.656-69.0176 27.4944-100.0448 46.4384-25.088 17.92-57.6 21.248-87.04 13.9776zM350.2592 497.9712c49.3056 13.824 103.3216-27.3408 103.424-78.4384 3.3792-50.3296-46.5408-95.232-96.1024-86.3232-33.5872 4.9152-62.72 32.0512-69.4272 65.4336-10.7008 42.6496 19.456 89.6 62.1056 99.328m5.2736-35.3792c-33.2288-9.9328-46.0288-56.5248-19.3024-80.1792 23.1936-25.344 67.9424-14.592 78.7968 17.4592 15.5648 35.072-23.9616 75.52-59.4944 62.72zM646.8608 497.3056c10.6496 0 21.3504 0.0512 32 0.0512 0.1024-21.6576 0.0512-43.264 0-64.9216 22.0672 0 44.1344 0.1024 66.2016-0.0512-0.1024-10.752-0.2048-21.4528-0.256-32.2048-21.9648 0.1024-43.9296 0.0512-65.8944 0.1024 0-21.9648-0.0512-43.9808 0.1536-65.9456-10.8032-0.0512-21.6064-0.0512-32.3584 0 0.2048 21.9648 0.1536 43.9296 0.1536 65.8944-21.8112 0.0512-43.6224 0.0512-65.3824-0.1024-0.1024 10.752-0.2048 21.5552-0.256 32.256 21.9136 0.1536 43.8272 0 65.7408 0.1536-0.1536 21.5552-0.1024 43.1616-0.1024 64.768z"  horiz-adv-x="1024" />

    
    <glyph glyph-name="xianxia" unicode="&#58880;" d="M1003.4 405L776.6 799.8c-8.4 12.6-25.2 21-37.8 21H285.2c-12.6 0-29.4-8.4-37.8-21L20.6 405c-8.4-12.6-8.4-29.4 0-42l226.8-394.8c8.4-12.6 25.2-21 37.8-21h453.6c12.6 0 29.4 8.4 37.8 21L1003.4 363c8.4 12.6 8.4 29.4 0 42zM554 552c0-25.2-16.8-42-42-42s-42 16.8-42 42 16.8 42 42 42 42-16.8 42-42z m-42-504s-4.2 0 0 0c-189 4.2-336 151.2-336 336s151.2 336 336 336c-92.4 0-168-75.6-168-168s75.6-168 168-168 168-75.6 168-168-75.6-168-168-168zM470 216a0.984 0.984 0 1 1 84 0 0.984 0.984 0 1 1-84 0z"  horiz-adv-x="1024" />

    
    <glyph glyph-name="user-group" unicode="&#58895;" d="M337.73568 883.72736a191.6416 191.6416 0 0 0 45.40416-5.4784 223.58528 223.58528 0 0 0 42.48064-14.72512 192.06656 192.06656 0 0 0 35.34848-21.04832 127.47776 127.47776 0 0 0 23.99744-23.5776 185.8304 185.8304 0 0 0 30.16192-59.3152 436.13696 436.13696 0 0 0 6.58432-25.30816c-24.27392-9.79968-30.25408-14.91968-46.73024-26.68544-13.74208-12.65152-22.5024-20.71552-33.73056-38.30272-8.45312-10.5728-20.13184-36.8128-24.97024-55.552-2.176-8.2688-9.88672-39.81824-11.35616-58.05056-1.04448-8.97024-4.29056-31.36512-3.24096-63.9488-4.56192-6.0416-7.65952-11.38176-10.37824-17.67424-2.28352-6.71744-3.1744-12.17024-4.21888-20.20864-0.85504-9.856 0.4352-13.89568 3.56864-25.94304 4.06528-12.38016 3.48672-10.9824 9.40544-21.89312 8.57088-12.74368 15.58016-15.1808 21.40672-17.67424 2.53952-9.14432 7.7824-26.91584 7.7824-26.91584s4.864-12.03712 8.7552-21.46304c5.66784-12.12416 11.02848-16.4096 11.02848-16.4096s13.0048-11.77088 24.64256-23.15264c3.36896-4.04992 12.2368-13.99808 12.6464-30.71488 1.29536-13.184 0.9728-10.95168 0.9728-24.4224 0.0512-10.5472-1.00352-11.84768-4.21888-21.04832-3.2-6.78912-5.48864-12.38016-12.6464-20.20352-5.9648-6.73792-13.44-13.62944-25.29792-21.04832-10.42432-6.96832-25.46688-15.60576-48.9728-21.89312-18.3296-4.7104-31.80032-9.56416-53.50912-17.24928-25.25184-10.85952-27.21792-13.14816-41.56416-23.11168-26.21952-20.87424-27.03872-52.35712-26.86464-50.37568s-2.78016-19.01056-3.61984-27.03872c-16.0512 1.024-32.384 2.28864-49.3056 3.82976a2403.26144 2403.26144 0 0 0-64.5376 6.74816 1468.20096 1468.20096 0 0 0-58.37312 7.97696c-17.5104 2.7904-32.10752 5.61152-44.43136 8.43264a58.37312 58.37312 0 0 0-22.70208 8.43264 74.06592 74.06592 0 0 0-12.32384 41.22112 333.73184 333.73184 0 0 0 3.56864 89.216 70.912 70.912 0 0 0 23.3472 47.54432 152.14592 152.14592 0 0 0 45.07648 25.94304 585.8304 585.8304 0 0 0 53.50912 17.24928c17.408 4.59264 33.9456 11.9808 48.9728 21.89312a115.77344 115.77344 0 0 1 25.29792 21.04832 69.05856 69.05856 0 0 1 12.6464 20.20352c2.85184 6.65088 4.28544 13.81888 4.21888 21.04832a344.5248 344.5248 0 0 1-0.9728 24.4224 47.18592 47.18592 0 0 1-12.6464 30.71488 436.51072 436.51072 0 0 1-24.64256 23.15264 51.90656 51.90656 0 0 0-11.02848 16.4096c-2.9184 7.00416-5.8368 14.1568-8.7552 21.46304a843.40736 843.40736 0 0 0-7.7824 26.91584 35.28192 35.28192 0 0 0-11.02336 5.90336 66.01216 66.01216 0 0 0-10.37824 11.77088 70.43072 70.43072 0 0 0-9.40544 21.89312 59.01312 59.01312 0 0 0-3.56864 25.94304 81.92 81.92 0 0 0 4.21888 20.20864 55.90016 55.90016 0 0 0 10.37824 17.67424 421.74976 421.74976 0 0 0 3.24096 63.9488 392.68864 392.68864 0 0 0 11.35616 58.05056 181.0176 181.0176 0 0 0 24.97024 55.552 155.6736 155.6736 0 0 0 33.73056 38.30272 168.15616 168.15616 0 0 0 37.94432 23.15264 157.69088 157.69088 0 0 0 38.91712 11.35104 248.88832 248.88832 0 0 0 37.62176 2.94912v-0.13312z m0 0M677.78048 725.71904a191.6416 191.6416 0 0 0 45.40416-5.4784 223.58528 223.58528 0 0 0 42.48064-14.72512 192.06656 192.06656 0 0 0 35.34848-21.04832 127.47776 127.47776 0 0 0 23.99744-23.5776 185.8304 185.8304 0 0 0 30.16192-59.3152 433.79712 433.79712 0 0 0 13.29664-61.84448c2.87232-22.58432 4.28032-45.33248 4.21376-68.10112a32.08704 32.08704 0 0 0 8.76032-10.92608c2.24256-4.83328 3.87072-9.91744 4.864-15.14496 1.39776-7.49056 1.61792-15.15008 0.65024-22.70208a92.76928 92.76928 0 0 0-6.8096-28.18048 58.5984 58.5984 0 0 0-11.6736-16.4096 38.12864 38.12864 0 0 0-14.91968-9.2416 839.552 839.552 0 0 0-7.7824-26.91584c-2.92352-7.296-5.84192-14.43328-9.08288-21.46304a58.43968 58.43968 0 0 0-11.67872-16.4096 820.1472 820.1472 0 0 1-24.64256-21.46816 52.22912 52.22912 0 0 1-12.6464-29.87008 113.00864 113.00864 0 0 1-1.62304-25.6512 77.91104 77.91104 0 0 1 6.8096-25.94816 81.54112 81.54112 0 0 1 18.16064-24.8064 114.50368 114.50368 0 0 1 34.70336-21.04832 362.74176 362.74176 0 0 1 43.13088-15.14496 467.15904 467.15904 0 0 0 45.40416-15.56992 161.49504 161.49504 0 0 0 39.23968-21.89312 70.97856 70.97856 0 0 0 24.32512-35.67104 188.61056 188.61056 0 0 0 5.8368-33.23904c1.29536-13.184 1.9456-26.51648 1.9456-39.98208a232.2432 232.2432 0 0 0-2.9184-37.87776 75.25376 75.25376 0 0 0-8.10496-26.91584 46.53568 46.53568 0 0 0-22.70208-11.776 439.97184 439.97184 0 0 0-45.7216-11.35104c-18.48832-3.6352-38.58944-6.87104-61.29664-9.728a1752.58624 1752.58624 0 0 0-67.45088-7.168 2052.4544 2052.4544 0 0 0-65.5104-4.63872c-20.75648-1.13152-38.91712-1.68448-54.15936-1.68448-15.24224 0-33.08032 0.55296-53.50912 1.68448-20.43392 1.13664-41.1904 2.6624-62.91456 4.63872a2403.26144 2403.26144 0 0 0-64.5376 6.74816 1468.20096 1468.20096 0 0 0-58.37312 7.97696c-17.5104 2.7904-32.10752 5.61152-44.43136 8.43264a58.37312 58.37312 0 0 0-22.70208 8.43264 74.06592 74.06592 0 0 0-12.32384 41.22112 333.73184 333.73184 0 0 0 3.56864 89.216 70.912 70.912 0 0 0 23.3472 47.54432 152.14592 152.14592 0 0 0 45.07648 25.94304 585.8304 585.8304 0 0 0 53.50912 17.24928c17.408 4.59264 33.9456 11.9808 48.9728 21.89312a115.77344 115.77344 0 0 1 25.29792 21.04832 69.05856 69.05856 0 0 1 12.6464 20.20352c2.85184 6.65088 4.28544 13.81888 4.21888 21.04832a344.5248 344.5248 0 0 1-0.9728 24.4224 47.18592 47.18592 0 0 1-12.6464 30.71488 436.51072 436.51072 0 0 1-24.64256 23.15264 51.90656 51.90656 0 0 0-11.02848 16.4096c-2.9184 7.00416-5.8368 14.1568-8.7552 21.46304a843.40736 843.40736 0 0 0-7.7824 26.91584 35.28192 35.28192 0 0 0-11.02336 5.90336 66.01216 66.01216 0 0 0-10.37824 11.77088 70.43072 70.43072 0 0 0-9.40544 21.89312 59.01312 59.01312 0 0 0-3.56864 25.94304 81.92 81.92 0 0 0 4.21888 20.20864 55.90016 55.90016 0 0 0 10.37824 17.67424 421.74976 421.74976 0 0 0 3.24096 63.9488 392.68864 392.68864 0 0 0 11.35616 58.05056 181.0176 181.0176 0 0 0 24.97024 55.552 155.6736 155.6736 0 0 0 33.73056 38.30272 168.15616 168.15616 0 0 0 37.94432 23.15264 157.69088 157.69088 0 0 0 38.91712 11.35104 248.88832 248.88832 0 0 0 37.62176 2.94912v-0.14336z m0 0"  horiz-adv-x="1024" />

    
    <glyph glyph-name="tianchongxing-" unicode="&#58948;" d="M555.5-29.3V772.4l68.1 43.9c6.3 4.5 14.1 7.2 22.4 7.2h277c34.5-1.2 62.1-29.5 62.1-64.3v-699.5c-1.8-31.8-26.6-57.4-58-60.4H655l-105.6-61c-9.6-4.6-20-6.6-30.4-6.2 20.4 1.1 36.5 17.9 36.5 38.6zM473.4-29.3V772.4l-68.1 43.9c-6.3 4.5-14.1 7.2-22.4 7.2h-277c-34.5-1.2-62.1-29.5-62.1-64.3v-699.5c1.8-31.8 26.6-57.4 58-60.4H374l105.6-61c9.6-4.6 20-6.6 30.4-6.2-20.4 1.1-36.6 17.9-36.6 38.6zM392.6 586.6c0 22.6-18.3 41-41 41h-88.1c-22.6 0-41-18.3-41-41 0-22.6 18.3-41 41-41h88.1c22.6 0.1 41 18.4 41 41zM392.6 403.6c0 22.6-18.3 41-41 41H243.5c-22.6 0-41-18.3-41-41 0-22.6 18.3-41 41-41h108.1c22.6 0.1 41 18.4 41 41zM392.6 220.6c0 22.6-18.3 41-41 41h-78.1c-22.6 0-41-18.3-41-41 0-22.6 18.3-41 41-41h78.1c22.6 0 41 18.4 41 41z"  horiz-adv-x="1024" />

    
    <glyph glyph-name="xieboke" unicode="&#58916;" d="M92.27377778 852.992h679.36711111c50.06222222 0 90.56711111-40.50488889 90.56711111-90.56711111v-755.48444444c0-50.06222222-40.50488889-90.56711111-90.56711111-90.56711112H92.27377778c-50.06222222 0-90.56711111 40.50488889-90.56711111 90.56711112v755.48444444c0 50.06222222 40.50488889 90.56711111 90.56711111 90.56711111zM499.82577778 422.45688889h-286.72c-20.82133333 0-37.77422222-16.95288889-37.77422223-37.77422222s16.95288889-37.77422222 37.77422223-37.77422222h286.83377777c20.82133333 0 37.77422222 16.95288889 37.77422223 37.77422222s-16.95288889 37.77422222-37.888 37.77422222zM379.10755555 226.19022222H213.10577778c-20.82133333 0-37.77422222-16.95288889-37.77422223-37.77422222 0-20.82133333 16.95288889-37.77422222 37.77422223-37.77422222h166.00177777c20.82133333 0 37.77422222 16.95288889 37.77422223 37.77422222 0 20.82133333-16.95288889 37.77422222-37.77422223 37.77422222zM650.80888889 618.6097777800001H213.10577778c-20.82133333 0-37.77422222-16.95288889-37.77422223-37.77422223s16.95288889-37.77422222 37.77422223-37.77422222H650.80888889c20.82133333 0 37.77422222 16.95288889 37.77422222 37.77422222s-16.95288889 37.77422222-37.77422222 37.77422223zM1018.31111111 425.30133333c-1.36533333 6.94044445-3.41333333 13.88088889-6.144 20.13866667l-0.11377778 0.34133333-0.22755555 0.34133334c-6.59911111 14.44977778-15.58755555 28.21688889-26.96533333 40.84622222-11.83288889 13.19822222-23.32444445 22.64177778-34.816 28.89955556-6.03022222 3.18577778-12.17422222 5.68888889-19.22844445 7.85066666-8.30577778 2.50311111-16.49777778 3.86844445-25.03111111 4.32355556-1.47911111 0-2.38933333 0.11377778-3.41333334 0.11377778-8.76088889 0-17.52177778-1.36533333-26.28266666-4.096-10.12622222-3.18577778-20.02488889-8.41955555-29.12711111-15.81511112l-0.56888889-0.45511111-0.56888889-0.45511111c-4.43733333-3.75466667-9.67111111-8.53333333-15.36-14.10844444-5.12-5.12-9.55733333-9.216-13.19822222-12.74311112l-3.75466667-3.64088888-0.11377778 0.11377778-2.73066666-2.84444445-29.24088889-27.87555555 1.13777777-1.13777778-2.38933333-2.50311112-102.51377777-106.04088888-38.68444445-39.936-34.816-35.95377778c-10.69511111-11.03644445-19.56977778-20.25244445-26.73777778-27.87555556l-11.49155555-12.06044444-1.59288889-1.70666667c-6.59911111-6.82666667-12.06044445-13.53955555-16.15644445-20.13866667-3.41333333-5.34755555-6.59911111-11.49155555-9.44355555-17.97688888-2.73066667-5.46133333-5.23377778-12.17422222-8.41955556-21.95911112-2.73066667-8.30577778-5.46133333-17.408-8.30577777-27.42044444-2.73066667-9.44355555-5.34755555-18.65955555-7.7368889-27.53422222-3.18577778-11.60533333-4.89244445-19.79733333-5.91644444-26.624-3.29955555-21.84533333 0.79644445-40.61866667 12.288-55.296 6.82666667-8.64711111 21.73155555-22.41422222 48.58311111-22.41422222 3.29955555 0 6.82666667 0.22755555 10.46755556 0.56888888l0.91022222 0.11377778 0.91022222 0.11377778c5.68888889 0.91022222 12.97066667 2.61688889 23.552 5.46133334 8.98844445 2.38933333 18.54577778 5.34755555 29.24088889 8.87466666 10.01244445 3.41333333 19.56977778 6.82666667 28.78577778 10.24 9.89866667 3.86844445 17.408 7.05422222 23.21066666 9.89866667 7.62311111 3.52711111 14.90488889 8.07822222 21.73155556 13.53955555 4.55111111 3.52711111 8.76088889 7.168 12.51555556 10.58133334 3.18577778 2.73066667 7.05422222 6.59911111 14.67733333 14.44977778 6.94044445 7.168 15.36 16.04266667 25.6 26.73777777 9.216 9.78488889 19.91111111 20.70755555 33.792 34.70222223l0.34133333 0.34133333 0.22755556 0.34133333 38.11555556 39.936 102.4 105.81333334 33.10933333 34.2471111-0.11377778 0.11377778 0.34133333 0.34133334c2.95822222 2.61688889 6.144 5.68888889 9.44355556 9.10222222 2.048 2.048 4.43733333 4.55111111 7.168 7.168 3.29955555 3.29955555 6.94044445 6.94044445 11.03644444 11.15022222l0.68266667 0.68266667 0.68266667 0.68266667c7.50933333 8.41955555 13.19822222 17.86311111 16.95288888 27.87555555 3.64088889 9.67111111 5.46133333 19.91111111 5.46133334 30.15111111 0.11377778 7.62311111-0.68266667 15.13244445-2.16177778 22.41422222zM800.08533333 209.57866666999996l-38.11555555-39.936c-12.62933333-12.85688889-24.12088889-24.576-34.36088889-35.27111112-10.12622222-10.69511111-18.54577778-19.456-25.25866667-26.39644444-6.71288889-6.94044445-10.69511111-10.80888889-11.94666667-11.83288889-3.18577778-2.95822222-6.82666667-6.144-10.92266666-9.32977777-4.096-3.29955555-8.41955555-5.91644445-12.85688889-7.96444445-4.43733333-2.27555555-10.92266667-5.00622222-19.56977778-8.41955555-8.64711111-3.29955555-17.52177778-6.48533333-26.96533333-9.55733334-9.32977778-3.072-18.31822222-5.80266667-26.73777778-8.07822222-8.41955555-2.27555555-14.67733333-3.75466667-18.88711111-4.43733334-1.82044445-0.22755555-3.64088889-0.34133333-5.12-0.34133333-5.68888889 0-9.78488889 1.36533333-11.94666667 4.20977778-2.84444445 3.64088889-3.64088889 9.67111111-2.38933333 18.20444445 0.68266667 4.66488889 2.16177778 11.264 4.55111111 20.02488888 2.38933333 8.76088889 4.89244445 17.74933333 7.62311111 27.07911112 2.73066667 9.44355555 5.34755555 18.09066667 7.85066667 25.94133333s4.66488889 13.312 6.25777778 16.27022222c1.93422222 4.55111111 4.096 8.76088889 6.48533333 12.51555555s5.80266667 7.96444445 10.24 12.51555556c1.93422222 2.048 6.37155555 6.71288889 13.42577778 14.10844444 6.94044445 7.39555555 15.70133333 16.49777778 26.28266667 27.42044445l34.816 35.95377778 38.68444444 39.936 102.51377778 106.04088889 89.20177778-92.72888889-102.85511112-105.92711111z m171.23555556 180.45155555c-1.59288889-4.32355555-4.096-8.41955555-7.62311111-12.288-3.75466667-3.98222222-7.28177778-7.39555555-10.24-10.35377777l-7.85066667-7.85066667c-2.50311111-2.61688889-4.89244445-4.89244445-7.168-6.94044445l-89.20177778 92.16c3.86844445 3.64088889 8.41955555 7.96444445 13.53955556 13.08444445 5.23377778 5.12 9.67111111 9.10222222 13.08444444 12.06044444 4.43733333 3.52711111 9.10222222 6.144 13.76711112 7.62311111 4.32355555 1.36533333 8.53333333 2.048 12.7431111 2.048h1.36533334c4.55111111-0.22755555 9.10222222-0.91022222 13.312-2.16177778 4.32355555-1.36533333 8.07822222-2.84444445 11.15022222-4.43733333 6.71288889-3.64088889 14.10844445-9.89866667 22.18666667-18.88711111 8.07822222-8.98844445 14.336-18.54577778 18.88711111-28.33066666 1.25155555-2.95822222 2.27555555-6.37155555 3.072-10.35377778 0.79644445-3.98222222 1.25155555-8.07822222 1.25155556-12.288 0.11377778-4.43733333-0.68266667-8.76088889-2.27555556-13.08444445z"  horiz-adv-x="1024" />

    
    <glyph glyph-name="quanxian" unicode="&#59173;" d="M889.536 536.64c20.992-20.992 32.064-47.232 33.28-78.72v-370.112c-1.152-31.488-12.224-57.728-33.28-78.72s-47.232-32.064-78.72-33.28H205.248c-31.488 1.152-57.728 12.224-78.72 33.28s-32.064 47.232-33.28 78.72V457.856c1.152 31.488 12.224 57.728 33.28 78.72s47.232 32.064 78.72 33.28h11.392c15.168 68.224 49.024 124.096 101.504 167.552 52.48 43.456 115.776 66.048 189.888 67.84 74.048-1.728 137.344-24.384 189.888-67.84 52.48-43.456 86.336-99.328 101.504-167.552h11.392c31.488-1.152 57.728-12.224 78.72-33.216z m-208.256 33.216c-11.648 36.736-33.408 66.368-65.216 88.832-31.808 22.464-67.84 33.664-108.032 33.664s-76.288-11.264-108.032-33.664c-31.808-22.464-53.504-52.032-65.216-88.832h346.496zM609.536 271.936c9.344 17.792 12.8 36.864 10.496 57.344-0.576 33.856-11.84 61.696-33.664 83.584s-49.728 33.088-83.584 33.664c-34.432-0.576-62.592-11.84-84.416-33.664s-33.088-49.728-33.664-83.584c0.576-22.72 6.72-42.432 18.368-59.072 11.648-16.64 26.24-30.784 43.776-42.432v-77.888c0-16.896 4.928-30.464 14.848-40.704 9.92-10.24 23.616-15.296 41.152-15.296h10.496c17.472 0 31.232 5.12 41.152 15.296 9.92 10.176 14.848 23.744 14.848 40.704v77.888c17.408 11.648 30.848 26.368 40.192 44.16z"  horiz-adv-x="1024" />

    
    <glyph glyph-name="yuedu" unicode="&#59529;" d="M563.2 793.6v-921.6l460.8 102.4V896l-460.8-102.4zM0-25.6l460.8-102.4V793.6L0 896zM76.8 793.6l307.2-71.68v-102.4L76.8 691.2z m0-204.8l307.2-71.68v-102.4L76.8 486.4z"  horiz-adv-x="1024" />

    
    <glyph glyph-name="kanshu" unicode="&#58942;" d="M494.933333-39.253333L250.88 42.666667H17.066667V759.466667h244.053333L494.933333 680.96v-720.213333zM85.333333 110.933333h175.786667l165.546667-54.613333V633.173333L250.88 691.2H85.333333v-580.266667zM529.066667-39.253333V680.96L762.88 759.466667H1006.933333v-716.8H773.12L529.066667-39.253333z m68.266666 672.426666v-576.853333l165.546667 54.613333H938.666667V691.2h-165.546667L597.333333 633.173333zM153.6 537.6h204.8v-68.266667H153.6zM153.6 332.8h204.8v-68.266667H153.6zM665.6 537.6h204.8v-68.266667H665.6zM665.6 332.8h204.8v-68.266667H665.6z"  horiz-adv-x="1024" />

    
    <glyph glyph-name="xiezi" unicode="&#59066;" d="M704-96H192c-70.4 0-128 57.6-128 128V736c0 70.4 57.6 128 128 128h512c70.4 0 128-57.6 128-128v-704c0-70.4-57.6-128-128-128zM497.6 587.2H233.6c-25.6 0-48 20.8-48 48v11.2c0 25.6 20.8 48 48 48H496c25.6 0 48-20.8 48-48v-11.2c1.6-25.6-20.8-48-46.4-48zM440 403.2H233.6c-25.6 0-48 20.8-48 48v11.2c0 25.6 20.8 48 48 48h206.4c25.6 0 48-22.4 48-48v-11.2c0-27.2-20.8-48-48-48zM936 702.4l-57.6 36.8c-24 14.4-56 8-70.4-16l-36.8-56c-4.8-8-3.2-19.2 6.4-24l115.2-70.4c8-4.8 19.2-3.2 24 4.8l36.8 56c14.4 22.4 6.4 54.4-17.6 68.8zM512 225.6l113.6-70.4c8-4.8 19.2-3.2 25.6 4.8L880 516.8c4.8 8 3.2 19.2-6.4 25.6l-113.6 70.4c-8 4.8-19.2 3.2-25.6-4.8L505.6 249.6c-4.8-8-3.2-19.2 6.4-24zM483.2 24l116.8 78.4c11.2 8 9.6 22.4 0 30.4L500.8 192c-11.2 6.4-25.6 0-27.2-12.8l-19.2-139.2c-1.6-14.4 16-25.6 28.8-16zM752 422.4c9.6-6.4 20.8-3.2 27.2 6.4l36.8 56c6.4 9.6 3.2 20.8-6.4 27.2-9.6 6.4-20.8 3.2-27.2-6.4l-36.8-56c-4.8-9.6-3.2-20.8 6.4-27.2z"  horiz-adv-x="1024" />

    
    <glyph glyph-name="logo-github" unicode="&#58962;" d="M512 832C264.6 832 64 626.2 64 372.6c0-203 128.4-375 306.4-435.8 2.8-0.6 5.2-0.8 7.6-0.8 16.6 0 23 12.2 23 22.8 0 11-0.4 39.8-0.6 78.2-16.8-3.8-31.8-5.4-45.2-5.4-86.2 0-105.8 67-105.8 67-20.4 53-49.8 67.2-49.8 67.2-39 27.4-0.2 28.2 2.8 28.2h0.2c45-4 68.6-47.6 68.6-47.6 22.4-39.2 52.4-50.2 79.2-50.2 21 0 40 6.8 51.2 12 4 29.6 15.6 49.8 28.4 61.4-99.4 11.6-204 51-204 227 0 50.2 17.4 91.2 46 123.2-4.6 11.6-20 58.4 4.4 121.6 0 0 3.2 1 10 1 16.2 0 52.8-6.2 113.2-48.2 35.8 10.2 74 15.2 112.2 15.4 38-0.2 76.4-5.2 112.2-15.4 60.4 42 97 48.2 113.2 48.2 6.8 0 10-1 10-1 24.4-63.2 9-110 4.4-121.6 28.6-32.2 46-73.2 46-123.2 0-176.4-104.8-215.2-204.6-226.6 16-14.2 30.4-42.2 30.4-85 0-61.4-0.6-111-0.6-126 0-10.8 6.2-23 22.8-23 2.4 0 5.2 0.2 8 0.8C831.8-2.4 960 169.8 960 372.6 960 626.2 759.4 832 512 832z"  horiz-adv-x="1024" />

    
    <glyph glyph-name="logo_github" unicode="&#59482;" d="M54.857143 384c0-201.984 130.980571-373.321143 312.630857-433.773714 22.857143-4.205714 31.213714 9.910857 31.213714 22.034285 0 10.843429-0.402286 39.606857-0.621714 77.732572-127.158857-27.611429-153.984 61.293714-153.984 61.293714-20.809143 52.827429-50.779429 66.889143-50.779429 66.889143-41.508571 28.342857 3.145143 27.776 3.145143 27.776 45.897143-3.236571 70.034286-47.122286 70.034286-47.122286 40.777143-69.851429 106.989714-49.664 133.046857-37.961143 4.150857 29.513143 15.963429 49.664 29.001143 61.074286-101.485714 11.538286-208.219429 50.779429-208.219429 225.956572 0 49.901714 17.810286 90.733714 47.067429 122.660571-4.717714 11.556571-20.406857 58.057143 4.48 120.978286 0 0 38.363429 12.306286 125.696-46.866286 36.461714 10.166857 75.574857 15.213714 114.450286 15.414857 38.838857-0.182857 77.933714-5.248 114.432-15.414857 87.277714 59.172571 125.586286 46.866286 125.586285 46.866286 24.96-62.902857 9.270857-109.421714 4.571429-120.978286 29.312-31.926857 46.994286-72.777143 46.994286-122.660571 0-175.634286-106.898286-214.272-208.713143-225.572572 16.384-14.116571 31.012571-42.020571 31.012571-84.662857 0-61.110857-0.566857-110.409143-0.566857-125.403429 0-12.233143 8.246857-26.459429 31.433143-21.997714C838.290286 10.843429 969.142857 182.070857 969.142857 384 969.142857 636.452571 764.452571 841.142857 511.963429 841.142857 259.547429 841.142857 54.857143 636.470857 54.857143 384z"  horiz-adv-x="1024" />

    
    <glyph glyph-name="logo-chrome" unicode="&#59628;" d="M377.6 384.15c0-73.892 60.486-134.356 134.4-134.356s134.398 60.462 134.398 134.356c0 73.89-60.484 134.358-134.398 134.358s-134.4-60.468-134.4-134.358zM953.504 460.41c-0.018-0.01-0.032-0.076-0.048-0.084-3.402 19.754-8.08 39.676-13.978 57.676h-0.214c5.966-18 10.704-38 14.144-58h-0.004c-3.438 20-8.176 40-14.14 58h-310.78c38.088-34 62.716-80.35 62.716-134.104 0-33.592-8.968-62.568-24.628-89.448L462.088-60.904s-0.018-0.528-0.028-0.528l-0.02-0.568h0.03l-0.01 0.524c16.406-1.84 33.062-2.524 49.94-2.524 13.684 0 27.218 0.786 40.598 2.004a447.72 447.72 0 0 1 59.554 9.466C811.36-7.05 960 171.192 960 384.118c0 25.998-2.242 51.506-6.496 76.292zM512 205.008c-67.202 0-123.202 35.82-154.57 89.57L152.012 649.906l-0.274 0.472a447.032 447.032 0 0 1-51.806-90.246C76.814 506.11 64 446.628 64 384.15c0-125.39 51.568-238.72 134.632-320.018 58.684-57.438 133.09-98.866 216.176-117.238l0.058 0.102 155.366 269.208c-17.918-6.716-38.062-11.196-58.232-11.196zM182.584 686.85l154.7-266.5C352.966 500.974 424.63 564 512 564h410.344c-13.842 30-31.188 60.648-51.558 87.876 0.078-0.042 0.156-0.106 0.234-0.148C891.288 624.576 908.556 594 922.344 564h0.344c-13.768 30-31.028 60.76-51.336 87.98-0.23 0.12-0.458 0.336-0.684 0.514C788.95 761.466 658.718 832 512 832c-52.744 0-103.346-9.138-150.344-25.872-69.23-24.654-130.606-65.834-179.374-118.812l0.284-0.486 0.018 0.02z"  horiz-adv-x="1024" />

    
    <glyph glyph-name="user" unicode="&#58890;" d="M642.482 413.274c84.946 44.995 131.595 128.916 131.595 225.918 0.079 141.603-117.569 256.808-262.166 256.808-144.676 0-262.324-115.205-262.324-256.808 0-97.081 42.552-180.924 127.498-225.918-192.98-54.056-336.868-241.442-336.868-450.655 0-43.419 3.073-89.674 97.711-90.383 84.473-0.63 573.739 0.236 748.28 0 77.46-0.079 97.16 45.073 97.554 90.383 2.049 207.322-147.986 396.598-341.281 450.655z"  horiz-adv-x="1024" />

    
    <glyph glyph-name="mima" unicode="&#58906;" d="M866.986667-54.613333h-716.8c-13.653333 0-25.6 11.946667-25.6 25.6v460.8c0 13.653333 11.946667 25.6 25.6 25.6h716.8c13.653333 0 25.6-11.946667 25.6-25.6v-460.8c0-13.653333-10.24-25.6-25.6-25.6zM508.586667 8.533333c-163.84 0-298.666667 134.826667-298.666667 298.666667V515.413333c0 163.84 134.826667 298.666667 298.666667 298.666667s298.666667-134.826667 298.666666-298.666667v-208.213333c0-163.84-133.12-298.666667-298.666666-298.666667z m0 720.213334c-117.76 0-213.333333-95.573333-213.333334-213.333334v-208.213333c0-117.76 95.573333-213.333333 213.333334-213.333333s213.333333 95.573333 213.333333 213.333333V515.413333c0 117.76-95.573333 213.333333-213.333333 213.333334z"  horiz-adv-x="1024" />

    
    <glyph glyph-name="caidan" unicode="&#60145;" d="M170.666667 682.666667h682.666666v-85.333334H170.666667V682.666667z m0-512h682.666666v-85.333334H170.666667v85.333334z m0 256h682.666666v-85.333334H170.666667v85.333334z"  horiz-adv-x="1024" />

    
    <glyph glyph-name="manage-the-return-of-books" unicode="&#58889;" d="M728.91418005 805.875H298.60168005v-520.31250027a22.96875037 22.96875037 0 0 0-46.87500009 0V799.78124963a131.71875018 131.71875018 0 0 1-93.75000018-126.0937499v-591.0937501A119.06250019 119.06250019 0 0 1 277.03917996-37.875h587.81250028V669.93749982a135.93750019 135.93750019 0 0 1-135.93750019 135.93750018zM427.97667978 695.24999982h315.93749991a22.03125018 22.03125018 0 0 0 22.50000027-22.49999945 22.50000027 22.50000027 0 0 0-22.50000027-22.50000028H427.97667978a22.50000027 22.50000027 0 0 0-22.50000028 22.50000028 22.03125018 22.03125018 0 0 0 22.50000028 22.49999945z m0-88.59375h281.24999973a22.50000027 22.50000027 0 0 0 0-46.87500009h-281.24999973a22.50000027 22.50000027 0 0 0 0 46.87500009z m0-272.34374963h261.09374991l-35.15624946 34.68750018a24.84374991 24.84374991 0 0 0 0 33.75 24.37499982 24.37499982 0 0 0 34.21874927 0l73.12500028-73.59375037a23.43749963 23.43749963 0 0 0 7.03124972-17.81250019 24.37499982 24.37499982 0 0 0-4.21875-13.59375018l-2.34374963-3.28124982-71.24999991-71.2499999a23.90624973 23.90624973 0 0 0-33.75 0 24.37499982 24.37499982 0 0 0 0 34.21875009l31.40624954 30.93750027H426.10168024a22.50000027 22.50000027 0 0 0-20.62500074 23.90624973 22.50000027 22.50000027 0 0 0 20.62500073 22.03125019z m393.28125018-320.15624992A3.28124982 3.28124982 0 0 0 814.22668023 9.000000089999958H259.22667978A53.90624982 53.90624982 0 0 0 204.85167987 61.96874973000001a57.18749963 57.18749963 0 0 0 53.43749972 55.31250009H814.22668023a3.28124982 3.28124982 0 0 0 3.74999992-3.74999991z"  horiz-adv-x="1024" />

    


  </font>
</defs>
</svg>
